<?xml version="1.0" encoding="UTF-8" standalone="no" ?>
<svg xmlns="http://www.w3.org/2000/svg" xmlns:xlink="http://www.w3.org/1999/xlink" version="1.1" width="1080" height="1080" viewBox="0 0 1080 1080" xml:space="preserve">
<desc>Created with Fabric.js 5.2.4</desc>
<defs>
</defs>
<g transform="matrix(1 0 0 1 540 540)" id="d19ff3ee-28a1-4d6e-971a-98586fa6e382"  >
<rect style="stroke: none; stroke-width: 1; stroke-dasharray: none; stroke-linecap: butt; stroke-dashoffset: 0; stroke-linejoin: miter; stroke-miterlimit: 4; fill: rgb(255,255,255); fill-rule: nonzero; opacity: 1; visibility: hidden;" vector-effect="non-scaling-stroke"  x="-540" y="-540" rx="0" ry="0" width="1080" height="1080" />
</g>
<g transform="matrix(1 0 0 1 540 540)" id="b5ab4811-2673-405b-ae95-14c687e63c4c"  >
</g>
<g transform="matrix(35.02 0 0 35.02 540 540)"  >
<path style="stroke: none; stroke-width: 1; stroke-dasharray: none; stroke-linecap: butt; stroke-dashoffset: 0; stroke-linejoin: miter; stroke-miterlimit: 4; fill: rgb(0,0,0); fill-rule: nonzero; opacity: 1;" vector-effect="non-scaling-stroke"  transform=" translate(-14.56, -14.76)" d="M 27.21 12.08 C 27.880000000000003 10.07 27.650000000000002 7.87 26.580000000000002 6.04 C 24.970000000000002 3.24 21.730000000000004 1.7999999999999998 18.57 2.47 C 17.16 0.89 15.14 -0.01 13.02 0 C 9.79 0 6.92 2.08 5.92 5.15 C 3.84 5.58 2.05 6.880000000000001 1 8.72 C -0.6200000000000001 11.52 -0.25 15.040000000000001 1.92 17.44 C 1.25 19.450000000000003 1.48 21.650000000000002 2.55 23.470000000000002 C 4.16 26.28 7.3999999999999995 27.720000000000002 10.57 27.050000000000004 C 11.97 28.630000000000003 13.99 29.540000000000006 16.11 29.530000000000005 C 19.34 29.530000000000005 22.21 27.450000000000003 23.21 24.380000000000003 C 25.29 23.950000000000003 27.080000000000002 22.650000000000002 28.12 20.810000000000002 C 29.75 18.01 29.380000000000003 14.490000000000002 27.21 12.090000000000002 Z M 24.91 7.01 C 25.55 8.129999999999999 25.79 9.44 25.57 10.71 C 25.53 10.680000000000001 25.45 10.64 25.4 10.610000000000001 L 19.52 7.210000000000001 C 19.22 7.040000000000001 18.849999999999998 7.040000000000001 18.55 7.210000000000001 L 11.66 11.190000000000001 L 11.66 8.270000000000001 L 17.35 4.980000000000001 C 20 3.450000000000001 23.380000000000003 4.360000000000001 24.91 7.010000000000002 Z M 11.66 13.08 L 14.56 11.4 L 17.46 13.08 L 17.46 16.43 L 14.56 18.11 L 11.66 16.43 L 11.66 13.08 Z M 13.01 1.93 C 14.31 1.93 15.559999999999999 2.38 16.56 3.21 C 16.52 3.23 16.439999999999998 3.28 16.38 3.31 L 10.5 6.7 C 10.2 6.87 10.02 7.19 10.02 7.54 L 10.02 15.5 L 7.49 14.04 L 7.49 7.46 C 7.49 4.4 9.96 1.9299999999999997 13.02 1.92 Z M 2.68 9.69 L 2.68 9.69 C 3.33 8.57 4.34 7.709999999999999 5.5600000000000005 7.26 L 5.5600000000000005 14.25 C 5.5600000000000005 14.6 5.74 14.91 6.040000000000001 15.09 L 12.920000000000002 19.06 L 10.380000000000003 20.529999999999998 L 4.700000000000003 17.249999999999996 C 2.0600000000000027 15.719999999999997 1.150000000000003 12.339999999999996 2.680000000000003 9.689999999999998 Z M 4.23 22.52 L 4.23 22.52 C 3.5800000000000005 21.41 3.3500000000000005 20.09 3.5700000000000003 18.82 C 3.6100000000000003 18.85 3.6900000000000004 18.89 3.74 18.92 L 9.620000000000001 22.32 C 9.920000000000002 22.490000000000002 10.290000000000001 22.490000000000002 10.590000000000002 22.32 L 17.470000000000002 18.34 L 17.470000000000002 21.259999999999998 L 11.780000000000001 24.54 C 9.13 26.06 5.750000000000001 25.16 4.2200000000000015 22.52 Z M 16.12 27.6 C 14.830000000000002 27.6 13.57 27.150000000000002 12.580000000000002 26.32 C 12.620000000000001 26.3 12.710000000000003 26.25 12.760000000000002 26.22 L 18.64 22.83 C 18.94 22.659999999999997 19.13 22.34 19.12 21.99 L 19.12 14.04 L 21.650000000000002 15.5 L 21.650000000000002 22.07 C 21.650000000000002 25.13 19.17 27.61 16.12 27.61 Z M 26.46 19.840000000000003 C 25.810000000000002 20.960000000000004 24.79 21.820000000000004 23.580000000000002 22.260000000000005 L 23.580000000000002 15.270000000000005 C 23.580000000000002 14.920000000000005 23.400000000000002 14.600000000000005 23.1 14.430000000000005 L 23.1 14.430000000000005 L 16.21 10.450000000000005 L 18.740000000000002 8.990000000000006 L 24.430000000000003 12.270000000000005 C 27.080000000000002 13.800000000000004 27.980000000000004 17.180000000000007 26.450000000000003 19.830000000000005 Z" stroke-linecap="round" />
</g>
</svg>
